<svg id="图层_1" data-name="图层 1" xmlns="http://www.w3.org/2000/svg" viewBox="0 0 708.27 708.27"><defs><style>.cls-1{fill:#1c4792;}.cls-2{fill:#fdfdfd;}.cls-3{fill:#2d7dcc;}.cls-4{fill:#e0e6ec;}</style></defs><title>xazxpflogo</title><rect class="cls-1" width="708.27" height="708.27" rx="200.35" ry="200.35"/><path id="_复合路径_" data-name=" 复合路径 " class="cls-2" d="M1312.28,334.9h412.83l-177,226.49L1729.38,792.9H1313l-.72-76.72,121.11-154.79L1312.28,405.14Zm178.46,151.94,55.91-71.56H1434.23Zm-60.32,225h121.11l-61-77.25Z" transform="translate(-1149.25 -234.45)"/><polygon id="_路径_" data-name=" 路径 " class="cls-2" points="563.66 170.69 441.83 326.93 563.66 482.46 563.66 377.92 578.72 377.92 578.72 276.4 563.66 276.4 563.66 170.69"/><path class="cls-1" d="M1356,738.7s71.89-21.58,91-47.1c18.6-24.87,70.89-22.39,91.16,2.27,22.93,27.89,96.56,53.06,96.56,53.06L1490.57,847.51Z" transform="translate(-1149.25 -234.45)"/><path class="cls-3" d="M1193.61,785s99.06-26,158.67-13.42,99.54,32.69,114.63,46,31.72,33.68,31.72,33.68,20.94-31.27,65.88-53.83S1680.85,763,1710.42,763c14.11,0,97.63,29.7,97.63,29.7l5.12,19.7s-100.1-8.63-138.52-2.32-82.2,20.35-117.48,39a364.12,364.12,0,0,0-47.46,29.77c-8.43,6.22-19.3,4.12-27.39-2-15.5-11.76-34-25.88-48.22-35-43.22-27.69-110.29-35-150.12-35.11s-90.37,3.57-90.37,3.57Z" transform="translate(-1149.25 -234.45)"/><path class="cls-4" d="M1207.11,753.38,1193.61,785s132.76-3.94,190.72,19.11,112.12,58.5,112.12,58.5,73.22-42.5,113.36-58C1660.39,785,1809,792.72,1809,792.72l-10-30.9-85.92-18.64L1549.75,772.3,1495,819.12l-29.5-30.56-153.84-45.38-80.08,3.18Z" transform="translate(-1149.25 -234.45)"/><path class="cls-2" d="M1223.49,716.91s75.89-8.45,133.1,4.11,95.55,32.69,110,46,30.45,33.67,30.45,33.67,20.1-31.26,63.24-53.83,111.67-34.48,140.06-34.48c13.54,0,59.61,4.62,59.61,4.62l39,44.79s-96.08-8.64-133-2.32-78.9,20.34-112.77,39-56.81,64.16-56.81,64.16-20.07-49.66-45.35-66.54c-41.49-27.69-121.84-39.86-160.06-40s-86.75,3.57-86.75,3.57Z" transform="translate(-1149.25 -234.45)"/></svg>